{
    "accessors" : [
        {
            "bufferView" : 0,
            "componentType" : 5123,
            "count" : 1536,
            "max" : [
                387
            ],
            "min" : [
                0
            ],
            "type" : "SCALAR"
        },
        {
            "bufferView" : 1,
            "componentType" : 5126,
            "count" : 388,
            "max" : [
                0.800000011920929,
                0.0,
                1.0
            ],
            "min" : [
                -0.800000011920929,
                0.0,
                -1.0000001192092896
            ],
            "type" : "VEC3"
        },
        {
            "bufferView" : 2,
            "componentType" : 5126,
            "count" : 388,
            "max" : [
                -0.0,
                1.0,
                -0.0
            ],
            "min" : [
                -0.0,
                0.9999999403953552,
                -0.0
            ],
            "type" : "VEC3"
        }
    ],
    "asset" : {
        "generator" : "Khronos Blender glTF 2.0 exporter",
        "version" : "2.0"
    },
    "bufferViews" : [
        {
            "buffer" : 0,
            "byteLength" : 3072,
            "byteOffset" : 0,
            "target" : 34963
        },
        {
            "buffer" : 0,
            "byteLength" : 4656,
            "byteOffset" : 3072,
            "target" : 34962
        },
        {
            "buffer" : 0,
            "byteLength" : 4656,
            "byteOffset" : 7728,
            "target" : 34962
        }
    ],
    "buffers" : [
        {
            "byteLength" : 12384,
            "uri" : "data:application/octet-stream;base64,"
        }
    ],
    "materials" : [
        {
            "name" : "White.045",
            "pbrMetallicRoughness" : {
                "baseColorFactor" : [
                    0.800000011920929,
                    0.800000011920929,
                    0.800000011920929,
                    1.0
                ],
                "metallicFactor" : 0.0
            }
        }
    ],
    "meshes" : [
        {
            "name" : "AceSpadesFro_Whit.026",
            "primitives" : [
                {
                    "attributes" : {
                        "NORMAL" : 2,
                        "POSITION" : 1
                    },
                    "indices" : 0,
                    "material" : 0
                }
            ]
        }
    ],
    "nodes" : [
        {
            "mesh" : 0,
            "name" : "10ofDiamonds",
            "translation" : [
                3.8999996185302734,
                0.0,
                5.0
            ]
        }
    ],
    "scene" : 0,
    "scenes" : [
        {
            "name" : "Scene",
            "nodes" : [
                0
            ]
        }
    ]
}
